<svg width="56" height="56" viewBox="0 0 56 56" fill="none" xmlns="http://www.w3.org/2000/svg">
<circle cx="28" cy="28" r="28" fill="#DEE9FC"/>
<path opacity="0.3" fill-rule="evenodd" clip-rule="evenodd" d="M20.8571 17H27.7364C28.0911 17 28.4343 17.1257 28.7051 17.3547L33.4687 21.3839C33.8057 21.6689 34 22.0879 34 22.5292V35.0833C34 36.8739 33.9796 37 32.1429 37H20.8571C19.0204 37 19 36.8739 19 35.0833V18.9167C19 17.1261 19.0204 17 20.8571 17ZM23 29C23 28.4477 23.4477 28 24 28H31C31.5523 28 32 28.4477 32 29C32 29.5523 31.5523 30 31 30H24C23.4477 30 23 29.5523 23 29ZM24 32C23.4477 32 23 32.4477 23 33C23 33.5523 23.4477 34 24 34H27C27.5523 34 28 33.5523 28 33C28 32.4477 27.5523 32 27 32H24Z" fill="#4B83EE"/>
<path fill-rule="evenodd" clip-rule="evenodd" d="M22.8571 19H30.7364C31.0911 19 31.4343 19.1257 31.7051 19.3547L36.4687 23.3839C36.8057 23.6689 37 24.0879 37 24.5292V37.0833C37 38.8739 36.9796 39 35.1429 39H22.8571C21.0204 39 21 38.8739 21 37.0833V20.9167C21 19.1261 21.0204 19 22.8571 19ZM23 29C23 28.4477 23.4477 28 24 28H31C31.5523 28 32 28.4477 32 29C32 29.5523 31.5523 30 31 30H24C23.4477 30 23 29.5523 23 29ZM24 32C23.4477 32 23 32.4477 23 33C23 33.5523 23.4477 34 24 34H27C27.5523 34 28 33.5523 28 33C28 32.4477 27.5523 32 27 32H24Z" fill="#4B83EE"/>
</svg>
