<svg width="16" height="16" viewBox="0 0 16 16" fill="none" xmlns="http://www.w3.org/2000/svg">
<path fill-rule="evenodd" clip-rule="evenodd" d="M11 0.666626L3.00001 0.666626C2.26667 0.666626 1.66667 1.26663 1.66667 1.99996L1.66667 11.3333H3.00001L3.00001 1.99996L11 1.99996V0.666626ZM13 3.33329L5.66667 3.33329C4.93334 3.33329 4.33334 3.93329 4.33334 4.66663L4.33334 14C4.33334 14.7333 4.93334 15.3333 5.66667 15.3333L13 15.3333C13.7333 15.3333 14.3333 14.7333 14.3333 14L14.3333 4.66663C14.3333 3.93329 13.7333 3.33329 13 3.33329ZM5.66667 14L13 14L13 4.66663L5.66667 4.66663L5.66667 14Z" fill="black" fill-opacity="0.22"/>
</svg>
