<svg width="19" height="19" viewBox="0 0 19 19" fill="none" xmlns="http://www.w3.org/2000/svg">
<path fill-rule="evenodd" clip-rule="evenodd" d="M13.0626 0.791656L3.56258 0.791656C2.69175 0.791656 1.97925 1.50416 1.97925 2.37499L1.97925 13.4583H3.56258L3.56258 2.37499L13.0626 2.37499V0.791656ZM15.4376 3.95832L6.72925 3.95832C5.85841 3.95832 5.14592 4.67082 5.14592 5.54166L5.14592 16.625C5.14592 17.4958 5.85841 18.2083 6.72925 18.2083L15.4376 18.2083C16.3084 18.2083 17.0209 17.4958 17.0209 16.625V5.54166C17.0209 4.67082 16.3084 3.95832 15.4376 3.95832ZM6.72925 16.625H15.4376L15.4376 5.54166L6.72925 5.54166L6.72925 16.625Z" fill="#9DA3AE"/>
</svg>
