<svg width="16" height="16" viewBox="0 0 16 16" fill="none" xmlns="http://www.w3.org/2000/svg">
<path d="M8.26 7.26667C6.74667 6.87333 6.26 6.46667 6.26 5.83333C6.26 5.10667 6.93333 4.6 8.06 4.6C9.24667 4.6 9.68667 5.16667 9.72667 6H11.2C11.1533 4.85333 10.4533 3.8 9.06 3.46V2L7.06 2V3.44C5.76667 3.72 4.72667 4.56 4.72667 5.84667C4.72667 7.38667 6 8.15333 7.86 8.6C9.52667 9 9.86 9.58667 9.86 10.2067C9.86 10.6667 9.53333 11.4 8.06 11.4C6.68667 11.4 6.14667 10.7867 6.07333 10H4.60667C4.68667 11.46 5.78 12.28 7.06 12.5533V14H9.06V12.5667C10.36 12.32 11.3933 11.5667 11.3933 10.2C11.3933 8.30667 9.77333 7.66 8.26 7.26667Z" fill="#999CA9"/>
</svg>
