<svg width="19" height="19" viewBox="0 0 19 19" fill="none" xmlns="http://www.w3.org/2000/svg">
<path fill-rule="evenodd" clip-rule="evenodd" d="M8.70837 11.875H5.54171C4.23546 11.875 3.16671 10.8062 3.16671 9.49996C3.16671 8.19371 4.23546 7.12496 5.54171 7.12496H8.70837V5.54163H5.54171C3.35671 5.54163 1.58337 7.31496 1.58337 9.49996C1.58337 11.685 3.35671 13.4583 5.54171 13.4583H8.70837V11.875ZM13.4584 5.54163H10.2917V7.12496H13.4584C14.7646 7.12496 15.8334 8.19371 15.8334 9.49996C15.8334 10.8062 14.7646 11.875 13.4584 11.875H10.2917V13.4583H13.4584C15.6434 13.4583 17.4167 11.685 17.4167 9.49996C17.4167 7.31496 15.6434 5.54163 13.4584 5.54163ZM12.6667 8.70829L6.33337 8.70829V10.2916L12.6667 10.2916V8.70829Z" fill="#9DA3AE"/>
</svg>
