<svg width="59" height="59" viewBox="0 0 59 59" fill="none" xmlns="http://www.w3.org/2000/svg">
<path fill-rule="evenodd" clip-rule="evenodd" d="M29.0625 0C13.0121 0 0 13.0121 0 29.0625C0 45.1129 13.0121 58.125 29.0625 58.125C45.1129 58.125 58.125 45.1129 58.125 29.0625C58.125 13.0121 45.1129 0 29.0625 0ZM41.6598 24.1483C41.8917 23.8831 42.0683 23.5743 42.1792 23.2399C42.29 22.9055 42.3328 22.5523 42.3052 22.2011C42.2775 21.8499 42.1798 21.5077 42.018 21.1948C41.8561 20.8819 41.6333 20.6045 41.3627 20.379C41.092 20.1535 40.779 19.9843 40.4421 19.8816C40.1051 19.7788 39.751 19.7444 39.4005 19.7805C39.0501 19.8166 38.7104 19.9225 38.4015 20.0918C38.0925 20.2611 37.8206 20.4905 37.6016 20.7665L26.2408 34.3968L20.3622 28.5156C19.864 28.0343 19.1966 27.768 18.5038 27.774C17.8111 27.7801 17.1484 28.0579 16.6586 28.5478C16.1687 29.0376 15.8909 29.7003 15.8848 30.393C15.8788 31.0858 16.1451 31.7532 16.6264 32.2514L24.5525 40.1776C24.8121 40.437 25.1229 40.6395 25.4651 40.7722C25.8073 40.9049 26.1734 40.9648 26.5401 40.9481C26.9067 40.9315 27.2659 40.8386 27.5946 40.6755C27.9234 40.5123 28.2145 40.2825 28.4495 40.0006L41.6598 24.1483Z" fill="#68D9A3"/>
</svg>
