<svg width="45" height="45" viewBox="0 0 45 45" fill="none" xmlns="http://www.w3.org/2000/svg">
<circle cx="22.5" cy="22.5" r="22.5" fill="#EEF0F6"/>
<path opacity="0.3" fill-rule="evenodd" clip-rule="evenodd" d="M16.7603 13.6608H22.1803C22.535 13.6608 22.8782 13.7865 23.149 14.0155L26.7902 17.0953C27.1271 17.3803 27.3215 17.7992 27.3215 18.2406V28.192C27.3215 29.6308 27.3051 29.7322 25.8291 29.7322H16.7603C15.2843 29.7322 15.2679 29.6308 15.2679 28.192V15.2009C15.2679 13.7621 15.2843 13.6608 16.7603 13.6608ZM18.4822 23.3036C18.4822 22.8598 18.842 22.5001 19.2858 22.5001H24.9108C25.3546 22.5001 25.7143 22.8598 25.7143 23.3036C25.7143 23.7474 25.3546 24.1072 24.9108 24.1072H19.2858C18.842 24.1072 18.4822 23.7474 18.4822 23.3036ZM19.2858 25.7143C18.842 25.7143 18.4822 26.0741 18.4822 26.5179C18.4822 26.9617 18.842 27.3215 19.2858 27.3215H21.6965C22.1403 27.3215 22.5001 26.9617 22.5001 26.5179C22.5001 26.0741 22.1403 25.7143 21.6965 25.7143H19.2858Z" fill="#4878D5"/>
<path fill-rule="evenodd" clip-rule="evenodd" d="M18.3674 15.2679H24.5911C24.9458 15.2679 25.289 15.3936 25.5598 15.6227L29.2009 18.7025C29.5379 18.9875 29.7322 19.4064 29.7322 19.8477V29.7992C29.7322 31.238 29.7158 31.3394 28.2399 31.3394H18.3674C16.8915 31.3394 16.8751 31.238 16.8751 29.7992V16.8081C16.8751 15.3693 16.8915 15.2679 18.3674 15.2679ZM18.4822 23.3037C18.4822 22.8599 18.842 22.5001 19.2858 22.5001H24.9108C25.3546 22.5001 25.7143 22.8599 25.7143 23.3037C25.7143 23.7475 25.3546 24.1072 24.9108 24.1072H19.2858C18.842 24.1072 18.4822 23.7475 18.4822 23.3037ZM19.2858 25.7144C18.842 25.7144 18.4822 26.0741 18.4822 26.5179C18.4822 26.9617 18.842 27.3215 19.2858 27.3215H21.6965C22.1403 27.3215 22.5001 26.9617 22.5001 26.5179C22.5001 26.0741 22.1403 25.7144 21.6965 25.7144H19.2858Z" fill="#4878D5"/>
</svg>
