<svg width="48" height="48" viewBox="0 0 48 48" fill="none" xmlns="http://www.w3.org/2000/svg">
<circle cx="24" cy="24" r="24" fill="#BC88FF"/>
<path opacity="0.3" fill-rule="evenodd" clip-rule="evenodd" d="M16.6548 12.9583H23.2245C23.5792 12.9583 23.9224 13.084 24.1932 13.3131L28.7187 17.1409C29.0557 17.4259 29.25 17.8448 29.25 18.2861V30.2882C29.25 32.0041 29.2304 32.125 27.4702 32.125H16.6548C14.8946 32.125 14.875 32.0041 14.875 30.2882V14.7951C14.875 13.0792 14.8946 12.9583 16.6548 12.9583ZM18.7083 24.4583C18.7083 23.9291 19.1374 23.5 19.6667 23.5H26.375C26.9043 23.5 27.3333 23.9291 27.3333 24.4583C27.3333 24.9876 26.9043 25.4167 26.375 25.4167H19.6667C19.1374 25.4167 18.7083 24.9876 18.7083 24.4583ZM19.6667 27.3333C19.1374 27.3333 18.7083 27.7624 18.7083 28.2917C18.7083 28.8209 19.1374 29.25 19.6667 29.25H22.5417C23.0709 29.25 23.5 28.8209 23.5 28.2917C23.5 27.7624 23.0709 27.3333 22.5417 27.3333H19.6667Z" fill="white"/>
<path fill-rule="evenodd" clip-rule="evenodd" d="M18.5714 14.875H26.0995C26.4542 14.875 26.7974 15.0007 27.0682 15.2297L31.5937 19.0576C31.9306 19.3426 32.125 19.7615 32.125 20.2028V32.2049C32.125 33.9208 32.1054 34.0417 30.3452 34.0417H18.5714C16.8112 34.0417 16.7916 33.9208 16.7916 32.2049V16.7118C16.7916 14.9959 16.8112 14.875 18.5714 14.875ZM18.7083 24.4583C18.7083 23.9291 19.1374 23.5 19.6666 23.5H26.375C26.9042 23.5 27.3333 23.9291 27.3333 24.4583C27.3333 24.9876 26.9042 25.4167 26.375 25.4167H19.6666C19.1374 25.4167 18.7083 24.9876 18.7083 24.4583ZM19.6666 27.3333C19.1374 27.3333 18.7083 27.7624 18.7083 28.2917C18.7083 28.8209 19.1374 29.25 19.6666 29.25H22.5416C23.0709 29.25 23.5 28.8209 23.5 28.2917C23.5 27.7624 23.0709 27.3333 22.5416 27.3333H19.6666Z" fill="white"/>
</svg>
