<svg width="24" height="24" viewBox="0 0 24 24" fill="none" xmlns="http://www.w3.org/2000/svg">
<g id="Stockholm-icons / General / Clip">
<path id="Path 16" d="M11.0859 16.0355L9.67168 14.6213L12.1466 12.1464C12.7323 11.5606 12.7323 10.6109 12.1466 10.0251C11.5608 9.43933 10.611 9.43933 10.0252 10.0251L6.4897 13.5606C5.12287 14.9275 5.12287 17.1436 6.4897 18.5104C7.85654 19.8772 10.0726 19.8772 11.4395 18.5104L18.5105 11.4393C19.8774 10.0725 19.8774 7.85642 18.5105 6.48958L18.157 6.13603C16.9854 4.96445 15.0859 4.96445 13.9143 6.13603L12.5001 4.72181C14.4527 2.76919 17.6186 2.76919 19.5712 4.72181L19.9247 5.07537C22.0726 7.22325 22.0726 10.7057 19.9247 12.8535L12.8537 19.9246C10.7058 22.0725 7.22337 22.0725 5.07549 19.9246C2.92761 17.7767 2.92761 14.2943 5.07549 12.1464L8.61102 8.6109C9.97786 7.24407 12.1939 7.24407 13.5608 8.6109C14.9276 9.97774 14.9276 12.1938 13.5608 13.5606L11.0859 16.0355Z" fill="black"/>
</g>
</svg>
