<svg width="14" height="18" viewBox="0 0 14 18" fill="none" xmlns="http://www.w3.org/2000/svg">
<path d="M13.6667 9C13.6667 8.08083 12.9192 7.33333 12 7.33333H11.1667V4.83333C11.1667 2.53583 9.29754 0.666664 7.00004 0.666664C4.70254 0.666664 2.83337 2.53583 2.83337 4.83333V7.33333H2.00004C1.08087 7.33333 0.333374 8.08083 0.333374 9V15.6667C0.333374 16.5858 1.08087 17.3333 2.00004 17.3333H12C12.9192 17.3333 13.6667 16.5858 13.6667 15.6667V9ZM4.50004 4.83333C4.50004 3.455 5.62171 2.33333 7.00004 2.33333C8.37837 2.33333 9.50004 3.455 9.50004 4.83333V7.33333H4.50004V4.83333Z" fill="#4E5763" fill-opacity="0.66"/>
</svg>
