<svg width="29" height="28" viewBox="0 0 29 28" fill="none" xmlns="http://www.w3.org/2000/svg">
<path fill-rule="evenodd" clip-rule="evenodd" d="M11.6566 0.517767C11.5955 1.44936 11.2836 2.42493 10.7521 3.34667C9.8056 4.98792 8.40458 6.0954 6.60563 6.62421C6.10821 6.77042 5.42769 6.88915 4.88821 6.92381C4.82125 6.92814 4.85929 6.93874 4.97266 6.94744C5.37946 6.97864 6.28134 7.18174 6.73637 7.34459C7.35889 7.5674 8.36995 8.15312 8.88393 8.58875C9.9231 9.46945 10.7547 10.767 11.1058 12.0558C11.213 12.4489 11.3546 13.2753 11.3745 13.6229C11.3783 13.6895 11.3964 13.6416 11.4147 13.5163C11.6086 12.1888 12.0094 11.1404 12.6796 10.2076C13.6656 8.83514 14.9736 7.91518 16.5631 7.47614C17.0782 7.33388 17.3822 7.28089 18.1102 7.20654C18.2696 7.19031 18.2693 7.18996 18.0816 7.17533C17.0108 7.09192 15.7518 6.63261 14.7717 5.96776C13.0007 4.76652 11.8318 2.72412 11.7296 0.652543C11.7188 0.434047 11.7022 0.250736 11.6926 0.245196C11.683 0.239657 11.6668 0.362356 11.6566 0.517767ZM24.2422 15.0593C24.152 15.6728 23.9423 16.2038 23.5396 16.8377C23.0122 17.668 22.4578 18.1621 21.5748 18.5892C21.2458 18.7482 20.4599 18.9692 20.054 19.0166L19.8561 19.0398L20.1627 19.0946C21.273 19.2932 22.3172 19.8959 23.0135 20.74C23.5943 21.4441 24.0061 22.4485 24.0684 23.3131C24.0803 23.4782 24.0974 23.562 24.1063 23.4992C24.2403 22.5599 24.522 21.8113 24.9694 21.2059C25.3799 20.6504 25.6513 20.3904 26.208 20.0193C26.9027 19.5564 27.6275 19.3019 28.4502 19.2323C28.5603 19.223 28.4968 19.2009 28.2443 19.1608C27.6035 19.0588 27.1241 18.8693 26.4944 18.469C25.2081 17.6513 24.5054 16.5017 24.3154 14.9043C24.2938 14.7227 24.2907 14.7295 24.2422 15.0593ZM5.08565 18.9438C4.99553 19.5572 4.78576 20.0882 4.38305 20.7222C3.85565 21.5525 3.30134 22.0466 2.41828 22.4736C2.08934 22.6327 1.30337 22.8536 0.897478 22.9011L0.699595 22.9242L1.00622 22.979C2.12565 23.1794 3.15499 23.7735 3.857 24.6244C4.4378 25.3286 4.84958 26.3329 4.91191 27.1976C4.9238 27.3627 4.94087 27.4464 4.94981 27.3837C5.08258 26.4531 5.37347 25.6845 5.82325 25.0762C6.22349 24.5349 6.49857 24.2724 7.05154 23.9038C7.74616 23.4408 8.47102 23.1864 9.29367 23.1168C9.40378 23.1075 9.34027 23.0854 9.08775 23.0452C8.44698 22.9433 7.96756 22.7538 7.33786 22.3535C6.05158 21.5358 5.34885 20.3862 5.15894 18.7888C5.13734 18.6071 5.13415 18.6139 5.08565 18.9438Z" fill="white"/>
</svg>
