<svg width="59" height="19" viewBox="0 0 59 19" fill="none" xmlns="http://www.w3.org/2000/svg">
<path fill-rule="evenodd" clip-rule="evenodd" d="M15.0417 7.52087L11.875 7.52087V2.77087L7.12504 2.77087L7.12504 7.52087L3.95837 7.52087L9.50004 13.0625L15.0417 7.52087ZM8.70837 9.10421V4.35421H10.2917V9.10421H11.218L9.50004 10.8221L7.78212 9.10421H8.70837ZM15.0417 16.2292V14.6459L3.95837 14.6459L3.95837 16.2292H15.0417Z" fill="#4D5562"/>
<path d="M33.0043 15H34.8487V11.5597H36.7976C39.1491 11.5597 40.4119 10.1477 40.4119 8.18892C40.4119 6.24503 39.1641 4.81818 36.8224 4.81818H33.0043V15ZM34.8487 10.0433V6.35938H36.5391C37.9212 6.35938 38.5327 7.10511 38.5327 8.18892C38.5327 9.27273 37.9212 10.0433 36.549 10.0433H34.8487ZM45.2543 15C48.3566 15 50.1961 13.081 50.1961 9.89915C50.1961 6.72727 48.3566 4.81818 45.3239 4.81818H41.804V15H45.2543ZM43.6485 13.4041V6.41406H45.2195C47.2877 6.41406 48.3665 7.56747 48.3665 9.89915C48.3665 12.2408 47.2877 13.4041 45.1648 13.4041H43.6485ZM51.7386 15H53.583V10.6747H57.8138V9.12855H53.583V6.36435H58.2613V4.81818H51.7386V15Z" fill="#4D5562"/>
</svg>
