<svg width="21" height="21" viewBox="0 0 21 21" fill="none" xmlns="http://www.w3.org/2000/svg">
<path fill-rule="evenodd" clip-rule="evenodd" d="M7.875 10.5C9.56375 10.5 10.9375 9.12625 10.9375 7.4375C10.9375 5.74875 9.56375 4.375 7.875 4.375C6.18625 4.375 4.8125 5.74875 4.8125 7.4375C4.8125 9.12625 6.18625 10.5 7.875 10.5ZM7.875 6.125C8.60125 6.125 9.1875 6.71125 9.1875 7.4375C9.1875 8.16375 8.60125 8.75 7.875 8.75C7.14875 8.75 6.5625 8.16375 6.5625 7.4375C6.5625 6.71125 7.14875 6.125 7.875 6.125ZM4.17375 14.875L7.91875 14.875C7.8925 15.015 7.875 15.1637 7.875 15.3125V16.625H1.75L1.75 15.3125C1.75 13.2738 5.8275 12.25 7.875 12.25C8.365 12.25 8.96875 12.3113 9.6075 12.425C8.98625 12.845 8.47 13.37 8.1725 14.0087C8.12438 14.0087 8.07406 14.0066 8.02375 14.0044C7.97344 14.0022 7.92313 14 7.875 14C6.53625 14 5.04 14.4375 4.17375 14.875ZM14.4375 12.6875C12.8275 12.6875 9.625 13.5712 9.625 15.3125V16.625L19.25 16.625L19.25 15.3125C19.25 13.5712 16.0475 12.6875 14.4375 12.6875ZM16.625 9.1875C16.625 10.01 16.1613 10.7188 15.4963 11.095C15.1812 11.27 14.8225 11.375 14.4375 11.375C14.0525 11.375 13.6938 11.27 13.3787 11.095C12.7137 10.7188 12.25 10.01 12.25 9.1875C12.25 7.98 13.23 7 14.4375 7C15.645 7 16.625 7.98 16.625 9.1875Z" fill="#9DA3AE"/>
</svg>
