<svg width="28" height="28" viewBox="0 0 28 28" fill="none" xmlns="http://www.w3.org/2000/svg">
<path d="M18.3347 15V18.3333H21.6671L21.6663 21.6652L25.0004 21.6661V24.9994H21.6671V21.6666L18.3347 21.6661V24.9994H15.0014V21.6661L18.3338 21.6666V18.3333H15.0014V15H18.3347ZM10.4997 15.0002C11.8804 15.0002 12.9997 16.1195 12.9997 17.5002V22.4997C12.9997 23.8804 11.8804 24.9997 10.4997 24.9997H5.50027C4.11956 24.9997 3.00027 23.8804 3.00027 22.4997V17.5002C3.00027 16.1195 4.11956 15.0002 5.50027 15.0002H10.4997ZM10.4997 17.0002H5.50027C5.22413 17.0002 5.00027 17.2241 5.00027 17.5002V22.4997C5.00027 22.7758 5.22413 22.9997 5.50027 22.9997H10.4997C10.7759 22.9997 10.9997 22.7758 10.9997 22.4997V17.5002C10.9997 17.2241 10.7759 17.0002 10.4997 17.0002ZM9.75 18.25V21.75H6.25V18.25H9.75ZM25.0004 15V18.3333H21.6671V15H25.0004ZM10.4997 3.00024C11.8804 3.00024 12.9997 4.11953 12.9997 5.50024V10.4997C12.9997 11.8804 11.8804 12.9997 10.4997 12.9997H5.50027C4.11956 12.9997 3.00027 11.8804 3.00027 10.4997V5.50024C3.00027 4.11953 4.11956 3.00024 5.50027 3.00024H10.4997ZM22.4997 3.00024C23.8804 3.00024 24.9997 4.11953 24.9997 5.50024V10.4997C24.9997 11.8804 23.8804 12.9997 22.4997 12.9997H17.5003C16.1196 12.9997 15.0003 11.8804 15.0003 10.4997V5.50024C15.0003 4.11953 16.1196 3.00024 17.5003 3.00024H22.4997ZM10.4997 5.00024H5.50027C5.22413 5.00024 5.00027 5.2241 5.00027 5.50024V10.4997C5.00027 10.7759 5.22413 10.9997 5.50027 10.9997H10.4997C10.7759 10.9997 10.9997 10.7759 10.9997 10.4997V5.50024C10.9997 5.2241 10.7759 5.00024 10.4997 5.00024ZM22.4997 5.00024H17.5003C17.2241 5.00024 17.0003 5.2241 17.0003 5.50024V10.4997C17.0003 10.7759 17.2241 10.9997 17.5003 10.9997H22.4997C22.7759 10.9997 22.9997 10.7759 22.9997 10.4997V5.50024C22.9997 5.2241 22.7759 5.00024 22.4997 5.00024ZM21.75 6.24998V9.74998H18.25V6.24998H21.75ZM9.74732 6.25266V9.7473H6.25268V6.25266H9.74732Z" fill="#4D5562"/>
</svg>
