<svg width="22" height="22" viewBox="0 0 22 22" fill="none" xmlns="http://www.w3.org/2000/svg">
<path fill-rule="evenodd" clip-rule="evenodd" d="M10.9999 1.83334C5.93992 1.83334 1.83325 5.94001 1.83325 11C1.83325 16.06 5.93992 20.1667 10.9999 20.1667C16.0599 20.1667 20.1666 16.06 20.1666 11C20.1666 5.94001 16.0599 1.83334 10.9999 1.83334ZM10.9999 18.3333C6.94825 18.3333 3.66659 15.0517 3.66659 11C3.66659 6.94834 6.94825 3.66668 10.9999 3.66668C15.0516 3.66668 18.3333 6.94834 18.3333 11C18.3333 15.0517 15.0516 18.3333 10.9999 18.3333ZM6.41658 11C6.41658 8.4687 8.46861 6.41668 10.9999 6.41668C13.5312 6.41668 15.5833 8.4687 15.5833 11C15.5833 13.5313 13.5312 15.5833 10.9999 15.5833C8.46861 15.5833 6.41658 13.5313 6.41658 11Z" fill="#4B83EE"/>
</svg>
