<svg width="14" height="11" viewBox="0 0 14 11" fill="none" xmlns="http://www.w3.org/2000/svg">
<path fill-rule="evenodd" clip-rule="evenodd" d="M2.40456 8.3875C2.4493 8.34519 2.50336 8.31121 2.5635 8.28758C2.62364 8.26397 2.68862 8.25118 2.75456 8.25H13.7514C13.7979 8.25057 13.8432 8.26287 13.8819 8.28541C13.9207 8.30794 13.9511 8.33978 13.9696 8.37705C13.9881 8.41434 13.9939 8.45548 13.9862 8.49555C13.9785 8.53562 13.9578 8.57291 13.9264 8.60292L11.5954 10.8625C11.5507 10.9048 11.4966 10.9388 11.4365 10.9624C11.3764 10.986 11.3114 10.9988 11.2454 11H0.241595C0.195068 10.9994 0.149719 10.9871 0.111005 10.9646C0.0722918 10.9421 0.0418619 10.9102 0.0233756 10.873C0.00488936 10.8357 -0.000865882 10.7945 0.00680163 10.7544C0.0144691 10.7144 0.0352339 10.6771 0.0665983 10.6471L2.40456 8.3875ZM13.9369 6.51444C13.9683 6.54445 13.989 6.58174 13.9967 6.62181C14.0044 6.66188 13.9986 6.70302 13.9801 6.74031C13.9616 6.77759 13.9312 6.80941 13.8924 6.83195C13.8537 6.85449 13.8084 6.86678 13.7619 6.86736L2.76156 6.875C2.69563 6.87382 2.63064 6.86104 2.5705 6.83742C2.51036 6.81379 2.4563 6.7798 2.41157 6.7375L0.0630979 4.48556C0.0317348 4.45555 0.0109701 4.41826 0.00330125 4.37819C-0.00436627 4.33813 0.00138897 4.29698 0.0198753 4.25969C0.0383616 4.22241 0.0687914 4.19059 0.107506 4.16805C0.146219 4.14551 0.191567 4.13322 0.238096 4.13264L11.2384 4.125C11.3044 4.12618 11.3694 4.13896 11.4295 4.16258C11.4896 4.18621 11.5437 4.2202 11.5884 4.2625L13.9369 6.51444ZM2.40456 0.1375C2.4493 0.0951979 2.50336 0.0612155 2.5635 0.0375886C2.62364 0.0139619 2.68862 0.00117693 2.75456 0L13.7584 0.00763889C13.8049 0.00821098 13.8503 0.0205066 13.889 0.0430468C13.9277 0.0655868 13.9582 0.0974116 13.9766 0.134693C13.9951 0.171975 14.0009 0.213125 13.9932 0.253194C13.9855 0.293263 13.9648 0.330545 13.9334 0.360556L11.5954 2.6125C11.5507 2.6548 11.4966 2.68879 11.4365 2.71242C11.3764 2.73604 11.3114 2.74882 11.2454 2.75H0.241595C0.195068 2.74943 0.149719 2.73713 0.111005 2.71459C0.0722918 2.69206 0.0418619 2.66022 0.0233756 2.62295C0.00488936 2.58566 -0.000865882 2.54452 0.00680163 2.50445C0.0144691 2.46438 0.0352339 2.42709 0.0665983 2.39708L2.40456 0.1375Z" fill="url(#paint0_linear_660_1600)"/>
<defs>
<linearGradient id="paint0_linear_660_1600" x1="0.425343" y1="11.2399" x2="11.8001" y2="-1.78915" gradientUnits="userSpaceOnUse">
<stop stop-color="#9945FF"/>
<stop offset="0.14" stop-color="#8A53F4"/>
<stop offset="0.42" stop-color="#6377D6"/>
<stop offset="0.79" stop-color="#24B0A7"/>
<stop offset="0.99" stop-color="#00D18C"/>
<stop offset="1" stop-color="#00D18C"/>
</linearGradient>
</defs>
</svg>
