<svg width="24" height="24" viewBox="0 0 24 24" fill="none" xmlns="http://www.w3.org/2000/svg">
<g id="Stockholm-icons / Navigation / Exchange">
<rect id="Rectangle" opacity="0.3" x="7" y="7" width="2" height="12" rx="1" transform="rotate(-90 7 7)" fill="black"/>
<path id="Path 104" d="M9.70711 8.29289C10.0976 8.68342 10.0976 9.31658 9.70711 9.70711C9.31658 10.0976 8.68342 10.0976 8.29289 9.70711L5.29289 6.70711C4.90237 6.31658 4.90237 5.68342 5.29289 5.29289L8.29289 2.29289C8.68342 1.90237 9.31658 1.90237 9.70711 2.29289C10.0976 2.68342 10.0976 3.31658 9.70711 3.70711L7.41421 6L9.70711 8.29289Z" fill="black"/>
<rect id="Rectangle Copy" opacity="0.3" width="2" height="12" rx="1" transform="matrix(0 -1 -1 0 17 19)" fill="black"/>
<path id="Path 104 Copy" d="M14.2929 20.2929C13.9024 20.6834 13.9024 21.3166 14.2929 21.7071C14.6834 22.0976 15.3166 22.0976 15.7071 21.7071L18.7071 18.7071C19.0976 18.3166 19.0976 17.6834 18.7071 17.2929L15.7071 14.2929C15.3166 13.9024 14.6834 13.9024 14.2929 14.2929C13.9024 14.6834 13.9024 15.3166 14.2929 15.7071L16.5858 18L14.2929 20.2929Z" fill="black"/>
</g>
</svg>
