<svg width="29" height="29" viewBox="0 0 29 29" fill="none" xmlns="http://www.w3.org/2000/svg">
<path fill-rule="evenodd" clip-rule="evenodd" d="M14.5002 1.20837C7.15954 1.20837 1.2085 7.15942 1.2085 14.5C1.2085 21.8407 7.15954 27.7917 14.5002 27.7917C21.8408 27.7917 27.7918 21.8407 27.7918 14.5C27.7918 7.15942 21.8408 1.20837 14.5002 1.20837ZM20.2615 12.2525C20.3676 12.1313 20.4483 11.99 20.499 11.8371C20.5497 11.6841 20.5693 11.5226 20.5567 11.362C20.544 11.2014 20.4993 11.0449 20.4253 10.9018C20.3513 10.7587 20.2494 10.6318 20.1256 10.5287C20.0018 10.4255 19.8587 10.3482 19.7046 10.3012C19.5505 10.2542 19.3885 10.2384 19.2282 10.255C19.068 10.2715 18.9126 10.3199 18.7713 10.3973C18.63 10.4747 18.5056 10.5797 18.4055 10.7059L13.2097 16.9397L10.5211 14.2499C10.2932 14.0298 9.988 13.908 9.67118 13.9108C9.35436 13.9135 9.05129 14.0406 8.82726 14.2646C8.60322 14.4887 8.47614 14.7917 8.47339 15.1086C8.47064 15.4254 8.59243 15.7306 8.81254 15.9585L12.4375 19.5835C12.5563 19.7022 12.6984 19.7948 12.8549 19.8554C13.0114 19.9161 13.1788 19.9435 13.3465 19.9359C13.5142 19.9283 13.6785 19.8858 13.8288 19.8112C13.9792 19.7366 14.1123 19.6315 14.2198 19.5025L20.2615 12.2525Z" fill="#377BFF"/>
</svg>
