<svg width="39" height="39" viewBox="0 0 39 39" fill="none" xmlns="http://www.w3.org/2000/svg">
<path d="M20.9366 4.11451C20.3743 3.05176 18.6258 3.05176 18.0636 4.11451L3.43855 31.7395C3.3069 31.9871 3.24164 32.2646 3.24911 32.5449C3.25659 32.8252 3.33655 33.0988 3.48122 33.3391C3.62588 33.5793 3.83031 33.778 4.07458 33.9157C4.31885 34.0534 4.59463 34.1255 4.87505 34.125H34.1251C34.4053 34.1256 34.6809 34.0535 34.925 33.9159C35.1691 33.7782 35.3734 33.5797 35.5179 33.3396C35.6624 33.0995 35.7422 32.826 35.7496 32.5459C35.757 32.2658 35.6916 31.9885 35.5599 31.7411L20.9366 4.11451ZM21.1251 29.25H17.8751V26H21.1251V29.25ZM17.8751 22.75V14.625H21.1251L21.1267 22.75H17.8751Z" fill="white"/>
</svg>
