<svg width="35" height="24" viewBox="0 0 35 24" fill="none" xmlns="http://www.w3.org/2000/svg">
<path d="M13.6667 10.2496H8.71421L8.71592 10.2342C8.93898 9.14193 9.37556 8.10449 10.0006 7.18139C10.9307 5.811 12.2353 4.73704 13.7589 4.0876C14.2748 3.86893 14.813 3.70152 15.3613 3.59048C16.4989 3.35984 17.6712 3.35984 18.8088 3.59048C20.4436 3.92547 21.9437 4.73406 23.1223 5.91552L25.5413 3.50335C24.4511 2.41282 23.1612 1.54225 21.742 0.939142C21.0182 0.632717 20.2656 0.399229 19.4955 0.242142C17.9065 -0.0807141 16.2687 -0.0807141 14.6797 0.242142C13.909 0.39988 13.1559 0.633936 12.4315 0.94085C10.297 1.84644 8.4698 3.34975 7.16988 5.26977C6.29502 6.56443 5.68322 8.01846 5.36929 9.54914C5.32146 9.77977 5.29583 10.0155 5.26167 10.2496H0L6.83333 17.0829L13.6667 10.2496ZM20.5 13.6662H25.4525L25.4508 13.6799C25.0044 15.8696 23.7137 17.7954 21.8581 19.0406C20.9353 19.6662 19.8978 20.1028 18.8053 20.3253C17.6683 20.5559 16.4966 20.5559 15.3596 20.3253C14.2674 20.1022 13.2299 19.6657 12.3068 19.0406C11.8535 18.734 11.4302 18.3851 11.0427 17.9986L8.62708 20.4141C9.71787 21.5044 11.0084 22.3744 12.4281 22.9766C13.1525 23.2841 13.9093 23.5182 14.6746 23.6736C16.263 23.9967 17.9002 23.9967 19.4887 23.6736C22.5509 23.0381 25.2445 21.2331 26.9968 18.6426C27.8708 17.3489 28.482 15.8961 28.7957 14.3666C28.8418 14.136 28.8691 13.9003 28.9033 13.6662H34.1667L27.3333 6.83289L20.5 13.6662Z" fill="white"/>
</svg>
