<svg width="31" height="31" viewBox="0 0 31 31" fill="none" xmlns="http://www.w3.org/2000/svg">
<path fill-rule="evenodd" clip-rule="evenodd" d="M15.4998 1.29166C7.65296 1.29166 1.2915 7.65311 1.2915 15.5C1.2915 23.3469 7.65296 29.7083 15.4998 29.7083C23.3467 29.7083 29.7082 23.3469 29.7082 15.5C29.7082 7.65311 23.3467 1.29166 15.4998 1.29166ZM21.6585 13.0975C21.7719 12.9679 21.8582 12.8169 21.9124 12.6534C21.9666 12.4899 21.9876 12.3172 21.974 12.1455C21.9605 11.9738 21.9128 11.8066 21.8336 11.6536C21.7545 11.5006 21.6456 11.365 21.5133 11.2547C21.3809 11.1445 21.2279 11.0618 21.0632 11.0115C20.8984 10.9613 20.7253 10.9445 20.554 10.9621C20.3827 10.9798 20.2166 11.0315 20.0655 11.1143C19.9145 11.1971 19.7816 11.3092 19.6745 11.4442L14.1203 18.1079L11.2464 15.2326C11.0028 14.9973 10.6765 14.8671 10.3378 14.8701C9.99915 14.873 9.67518 15.0089 9.4357 15.2483C9.19621 15.4878 9.06037 15.8118 9.05742 16.1505C9.05448 16.4891 9.18467 16.8154 9.41996 17.059L13.295 20.934C13.4219 21.0609 13.5738 21.1599 13.7411 21.2247C13.9084 21.2896 14.0874 21.3189 14.2666 21.3107C14.4459 21.3026 14.6215 21.2572 14.7822 21.1774C14.9429 21.0977 15.0853 20.9853 15.2002 20.8475L21.6585 13.0975Z" fill="white"/>
</svg>
