<svg width="745" height="174" viewBox="0 0 745 174" fill="none" xmlns="http://www.w3.org/2000/svg">
<path d="M191.096 128H212.904L223.46 86.008L233.668 128H255.592L273.108 63.272H254.432L245.384 109.324L234.364 63.272H213.368L202.464 109.556L193.3 63.272H173.464L191.096 128ZM276.728 95.52C276.728 115.936 289.372 128.928 305.148 128.928C314.776 128.928 321.62 124.52 325.216 118.836V128H345.052V63.272H325.216V72.436C321.736 66.752 314.892 62.344 305.264 62.344C289.372 62.344 276.728 75.104 276.728 95.52ZM325.216 95.636C325.216 105.96 318.604 111.644 311.064 111.644C303.64 111.644 296.912 105.844 296.912 95.52C296.912 85.196 303.64 79.628 311.064 79.628C318.604 79.628 325.216 85.312 325.216 95.636ZM355.459 95.52C355.459 115.936 368.103 128.928 383.995 128.928C393.507 128.928 400.351 124.404 403.947 118.72V127.884C403.947 138.788 398.031 142.732 390.491 142.732C383.647 142.732 378.775 139.6 377.499 134.728H357.895C359.635 150.156 372.163 159.9 391.419 159.9C413.807 159.9 423.783 145.168 423.783 127.884V63.272H403.947V72.436C400.467 66.636 393.507 62.344 383.995 62.344C368.103 62.344 355.459 75.104 355.459 95.52ZM403.947 95.636C403.947 105.96 397.335 111.644 389.795 111.644C382.371 111.644 375.643 105.844 375.643 95.52C375.643 85.196 382.371 79.628 389.795 79.628C397.335 79.628 403.947 85.312 403.947 95.636ZM527.337 128H547.057V90.184C547.057 72.784 536.733 62.576 520.725 62.576C511.329 62.576 503.209 67.796 498.917 74.64C494.509 66.868 486.621 62.576 476.877 62.576C468.409 62.576 461.797 66.172 457.969 71.392V63.272H438.133V128H457.969V92.852C457.969 84.384 462.841 79.744 470.381 79.744C477.921 79.744 482.793 84.384 482.793 92.852V128H502.513V92.852C502.513 84.384 507.385 79.744 514.925 79.744C522.465 79.744 527.337 84.384 527.337 92.852V128ZM560.93 128H580.766V63.272H560.93V128ZM570.906 56.544C577.866 56.544 582.622 51.788 582.622 45.872C582.622 39.84 577.866 35.084 570.906 35.084C563.83 35.084 559.074 39.84 559.074 45.872C559.074 51.788 563.83 56.544 570.906 56.544Z" fill="#344361"/>
<rect x="600" y="67" width="145" height="66" rx="10" fill="#344361" fill-opacity="0.23"/>
<path d="M657.404 105.172C657.404 107.414 655.884 108.668 653.3 108.668H647.942V101.524H653.186C655.77 101.524 657.404 102.892 657.404 105.172ZM656.758 94.114C656.758 96.28 655.314 97.42 652.806 97.42H647.942V90.77H652.806C655.314 90.77 656.758 91.986 656.758 94.114ZM662.8 105.818C662.8 102.702 660.672 99.928 657.67 99.396C660.254 98.56 662.192 96.546 662.192 93.316C662.192 89.364 659.114 86.476 653.566 86.476H642.622V113H654.06C659.57 113 662.8 110.036 662.8 105.818ZM667.04 113H672.36V86.476H667.04V113ZM703.494 99.662C703.494 91.72 697.49 86.096 689.928 86.096C682.442 86.096 676.324 91.72 676.324 99.662C676.324 107.642 682.442 113.266 689.928 113.266C697.452 113.266 703.494 107.642 703.494 99.662ZM681.796 99.662C681.796 94.266 685.102 90.884 689.928 90.884C694.716 90.884 698.022 94.266 698.022 99.662C698.022 105.058 694.716 108.516 689.928 108.516C685.102 108.516 681.796 105.058 681.796 99.662Z" fill="#344361" fill-opacity="0.37"/>
<path d="M0 73.618L18.9479 48L38.9112 71.5698L20.9786 97.5975L0 73.618Z" fill="url(#paint0_linear_132_96)"/>
<path d="M54.4761 73.618L73.424 48L93.3873 71.5698L75.4547 97.5975L54.4761 73.618Z" fill="url(#paint1_linear_132_96)"/>
<path d="M108.952 73.618L127.898 48L147.861 71.5698L129.929 97.5975L108.952 73.618Z" fill="url(#paint2_linear_132_96)"/>
<path d="M27.239 109.076L46.1869 83.4556L66.1502 107.025L48.2156 133.053L27.239 109.076Z" fill="url(#paint3_linear_132_96)"/>
<path d="M81.7131 109.076L100.661 83.4556L120.624 107.025L102.692 133.053L81.7131 109.076Z" fill="url(#paint4_linear_132_96)"/>
<defs>
<linearGradient id="paint0_linear_132_96" x1="19.4556" y1="48" x2="19.4556" y2="97.5975" gradientUnits="userSpaceOnUse">
<stop stop-color="#8EB4FF"/>
<stop offset="1" stop-color="#A495FF"/>
</linearGradient>
<linearGradient id="paint1_linear_132_96" x1="73.9317" y1="48" x2="73.9317" y2="97.5975" gradientUnits="userSpaceOnUse">
<stop stop-color="#8EB4FF"/>
<stop offset="1" stop-color="#A495FF"/>
</linearGradient>
<linearGradient id="paint2_linear_132_96" x1="128.407" y1="48" x2="128.407" y2="97.5975" gradientUnits="userSpaceOnUse">
<stop stop-color="#8EB4FF"/>
<stop offset="1" stop-color="#A495FF"/>
</linearGradient>
<linearGradient id="paint3_linear_132_96" x1="46.6946" y1="83.4556" x2="46.6946" y2="133.053" gradientUnits="userSpaceOnUse">
<stop stop-color="#8EB4FF"/>
<stop offset="1" stop-color="#A495FF"/>
</linearGradient>
<linearGradient id="paint4_linear_132_96" x1="101.169" y1="83.4556" x2="101.169" y2="133.053" gradientUnits="userSpaceOnUse">
<stop stop-color="#8EB4FF"/>
<stop offset="1" stop-color="#A495FF"/>
</linearGradient>
</defs>
</svg>
