<svg width="874" height="435" viewBox="0 0 874 435" fill="none" xmlns="http://www.w3.org/2000/svg">
<rect x="279.5" y="379.5" width="253" height="55" rx="6.5" stroke="#D6D6D6"/>
<circle cx="44.5" cy="44.5" r="44.5" fill="#EEEEEE"/>
<rect x="632" y="132" width="242" height="57" rx="28.5" fill="#F4F2F2"/>
<path d="M289 294.5C289 301.117 293.148 306.767 298.985 308.99C298.842 307.78 298.691 305.784 299.017 304.384C299.297 303.18 300.826 296.714 300.826 296.714C300.826 296.714 300.365 295.79 300.365 294.422C300.365 292.278 301.608 290.677 303.157 290.677C304.474 290.677 305.11 291.665 305.11 292.849C305.11 294.173 304.266 296.152 303.831 297.987C303.468 299.523 304.602 300.776 306.116 300.776C308.858 300.776 310.967 297.884 310.967 293.709C310.967 290.014 308.312 287.432 304.521 287.432C300.132 287.432 297.555 290.724 297.555 294.128C297.555 295.455 298.065 296.875 298.703 297.649C298.757 297.708 298.796 297.779 298.815 297.857C298.833 297.934 298.832 298.015 298.81 298.092C298.693 298.58 298.432 299.628 298.381 299.842C298.313 300.124 298.158 300.185 297.865 300.048C295.938 299.151 294.734 296.334 294.734 294.071C294.734 289.203 298.269 284.734 304.928 284.734C310.28 284.734 314.441 288.548 314.441 293.645C314.441 298.963 311.089 303.243 306.434 303.243C304.869 303.243 303.401 302.43 302.897 301.47C302.897 301.47 302.123 304.417 301.936 305.138C301.572 306.538 300.562 308.31 299.935 309.317C301.379 309.761 302.911 310 304.5 310C313.06 310 320 303.06 320 294.5C320 285.94 313.06 279 304.5 279C295.94 279 289 285.94 289 294.5Z" fill="#B4B7C0"/>
<path fill-rule="evenodd" clip-rule="evenodd" d="M150 294.587C150 302.293 155.597 308.701 162.917 310V298.805H159.042V294.5H162.917V291.055C162.917 287.18 165.413 285.028 168.945 285.028C170.063 285.028 171.27 285.2 172.388 285.372V289.333H170.408C168.513 289.333 168.083 290.28 168.083 291.487V294.5H172.217L171.528 298.805H168.083V310C175.403 308.701 181 302.294 181 294.587C181 286.014 174.025 279 165.5 279C156.975 279 150 286.014 150 294.587Z" fill="#B4B7C0"/>
<g clip-path="url(#clip0_142_364)">
<path d="M234.5 284H237.47C237.686 285.117 238.28 286.527 239.323 287.925C240.343 289.295 241.696 290.25 243.5 290.25V293.375C240.871 293.375 238.895 292.103 237.5 290.517V301.188C237.5 302.733 237.06 304.243 236.236 305.528C235.412 306.813 234.241 307.814 232.87 308.405C231.5 308.997 229.992 309.151 228.537 308.85C227.082 308.548 225.746 307.804 224.697 306.712C223.648 305.619 222.934 304.227 222.644 302.712C222.355 301.196 222.503 299.625 223.071 298.198C223.639 296.77 224.6 295.55 225.833 294.692C227.067 293.833 228.517 293.375 230 293.375V296.5C229.11 296.5 228.24 296.775 227.5 297.29C226.76 297.805 226.183 298.537 225.843 299.394C225.502 300.25 225.413 301.193 225.586 302.102C225.76 303.011 226.189 303.847 226.818 304.502C227.447 305.158 228.249 305.604 229.122 305.785C229.995 305.966 230.9 305.873 231.722 305.518C232.544 305.163 233.247 304.563 233.742 303.792C234.236 303.021 234.5 302.115 234.5 301.188V284Z" fill="#B4B7C0"/>
</g>
<path fill-rule="evenodd" clip-rule="evenodd" d="M84.6421 280.377C86.1573 280.307 86.6403 280.292 90.4998 280.292C94.3593 280.292 94.8424 280.309 96.3563 280.377C97.8701 280.445 98.9034 280.687 99.8076 281.037C100.754 281.395 101.613 281.954 102.324 282.677C103.047 283.387 103.605 284.244 103.962 285.192C104.313 286.096 104.553 287.13 104.623 288.641C104.693 290.159 104.708 290.642 104.708 294.5C104.708 298.36 104.691 298.843 104.623 300.358C104.554 301.869 104.313 302.902 103.962 303.807C103.605 304.755 103.046 305.614 102.324 306.324C101.613 307.047 100.754 307.605 99.8076 307.962C98.9034 308.313 97.8701 308.553 96.3588 308.623C94.8424 308.693 94.3593 308.708 90.4998 308.708C86.6403 308.708 86.1573 308.692 84.6421 308.623C83.1309 308.555 82.0975 308.313 81.1934 307.962C80.2452 307.605 79.3861 307.046 78.6759 306.324C77.9531 305.614 77.3937 304.756 77.0368 303.808C76.6868 302.904 76.4465 301.87 76.3768 300.359C76.307 298.841 76.2915 298.358 76.2915 294.5C76.2915 290.641 76.3083 290.157 76.3768 288.644C76.4452 287.13 76.6868 286.096 77.0368 285.192C77.3942 284.244 77.954 283.386 78.6772 282.676C79.3864 281.953 80.2446 281.394 81.1921 281.037C82.0963 280.687 83.1296 280.447 84.6408 280.377H84.6421ZM96.2413 282.934C94.743 282.866 94.2935 282.852 90.4998 282.852C86.7062 282.852 86.2567 282.866 84.7584 282.934C83.3724 282.998 82.6207 283.229 82.1195 283.424C81.4569 283.682 80.9828 283.988 80.4855 284.486C80.0141 284.944 79.6514 285.503 79.4238 286.12C79.2288 286.621 78.9975 287.373 78.9343 288.759C78.8658 290.257 78.8516 290.706 78.8516 294.5C78.8516 298.294 78.8658 298.743 78.9343 300.242C78.9975 301.627 79.2288 302.379 79.4238 302.88C79.6511 303.497 80.0141 304.056 80.4855 304.514C80.9441 304.986 81.5034 305.349 82.1195 305.576C82.6207 305.771 83.3724 306.002 84.7584 306.066C86.2567 306.134 86.7049 306.148 90.4998 306.148C94.2948 306.148 94.743 306.134 96.2413 306.066C97.6273 306.002 98.379 305.771 98.8802 305.576C99.5428 305.318 100.017 305.012 100.514 304.514C100.986 304.056 101.349 303.497 101.576 302.88C101.771 302.379 102.002 301.627 102.065 300.242C102.134 298.743 102.148 298.294 102.148 294.5C102.148 290.706 102.134 290.257 102.065 288.759C102.002 287.373 101.771 286.621 101.576 286.12C101.318 285.457 101.011 284.983 100.514 284.486C100.055 284.014 99.4972 283.652 98.8802 283.424C98.379 283.229 97.6273 282.998 96.2413 282.934ZM88.685 298.88C89.6986 299.302 90.8271 299.359 91.878 299.041C92.9288 298.723 93.8367 298.051 94.4467 297.138C95.0566 296.225 95.3307 295.129 95.2222 294.037C95.1137 292.944 94.6293 291.923 93.8517 291.148C93.356 290.653 92.7567 290.274 92.0968 290.038C91.4369 289.802 90.7329 289.715 90.0355 289.784C89.3381 289.852 88.6646 290.075 88.0635 290.435C87.4624 290.796 86.9487 291.285 86.5594 291.867C86.17 292.45 85.9147 293.112 85.8118 293.805C85.7088 294.498 85.7609 295.206 85.9642 295.876C86.1675 296.547 86.517 297.164 86.9874 297.684C87.4579 298.203 88.0377 298.612 88.685 298.88ZM85.3358 289.336C86.0139 288.658 86.819 288.12 87.7051 287.753C88.5911 287.386 89.5408 287.197 90.4998 287.197C91.4589 287.197 92.4086 287.386 93.2946 287.753C94.1807 288.12 94.9858 288.658 95.6639 289.336C96.3421 290.014 96.88 290.819 97.247 291.705C97.6141 292.591 97.803 293.541 97.803 294.5C97.803 295.459 97.6141 296.409 97.247 297.295C96.88 298.181 96.3421 298.986 95.6639 299.664C94.2943 301.034 92.4367 301.803 90.4998 301.803C88.5629 301.803 86.7054 301.034 85.3358 299.664C83.9662 298.295 83.1967 296.437 83.1967 294.5C83.1967 292.563 83.9662 290.706 85.3358 289.336ZM99.4227 288.285C99.5907 288.126 99.7253 287.935 99.8183 287.724C99.9114 287.513 99.9611 287.285 99.9644 287.054C99.9678 286.823 99.9248 286.593 99.8379 286.379C99.7511 286.165 99.6221 285.971 99.4588 285.807C99.2954 285.644 99.101 285.515 98.8869 285.428C98.6728 285.341 98.4435 285.298 98.2125 285.302C97.9815 285.305 97.7535 285.355 97.542 285.448C97.3306 285.541 97.1399 285.675 96.9814 285.843C96.6731 286.17 96.5043 286.604 96.5109 287.054C96.5174 287.503 96.6988 287.932 97.0165 288.25C97.3342 288.567 97.7632 288.749 98.2125 288.755C98.6617 288.762 99.0958 288.593 99.4227 288.285Z" fill="#B4B7C0"/>
<path d="M30.539 285.377C29.4605 285.855 28.3019 286.178 27.0838 286.324C28.3406 285.572 29.2809 284.388 29.7292 282.994C28.5484 283.695 27.2561 284.189 25.9084 284.453C25.0021 283.486 23.8018 282.844 22.4937 282.629C21.1855 282.413 19.8429 282.636 18.6741 283.262C17.5053 283.887 16.5758 284.881 16.0299 286.09C15.4841 287.298 15.3523 288.652 15.6552 289.943C13.2626 289.823 10.922 289.201 8.78533 288.118C6.64865 287.035 4.76362 285.514 3.25257 283.655C2.73591 284.546 2.43882 285.58 2.43882 286.68C2.43825 287.671 2.68222 288.646 3.14908 289.52C3.61595 290.394 4.29128 291.139 5.11516 291.689C4.15968 291.659 3.22529 291.401 2.38974 290.936V291.014C2.38964 292.403 2.87028 293.75 3.7501 294.825C4.62992 295.901 5.85473 296.639 7.2167 296.914C6.33034 297.154 5.40105 297.189 4.49903 297.017C4.8833 298.213 5.63182 299.259 6.6398 300.008C7.64778 300.757 8.86476 301.172 10.1204 301.195C7.9889 302.868 5.35655 303.776 2.64678 303.772C2.16677 303.772 1.68717 303.744 1.21045 303.688C3.96102 305.456 7.16289 306.395 10.433 306.391C21.5025 306.391 27.554 297.223 27.554 289.271C27.554 289.013 27.5475 288.752 27.5359 288.494C28.713 287.643 29.729 286.588 30.5365 285.381L30.539 285.377Z" fill="#B4B7C0"/>
<rect x="0.5" y="379.5" width="253" height="55" rx="6.5" fill="white" stroke="#E2E2E2"/>
<rect x="1" y="127" width="137" height="7" fill="#C4C4C4"/>
<rect x="152" y="127" width="56" height="7" fill="#C4C4C4"/>
<rect x="1" y="169" width="430" height="7" fill="#C4C4C4"/>
<rect x="152" y="203" width="279" height="7" fill="#C4C4C4" fill-opacity="0.19"/>
<rect x="1" y="203" width="128" height="7" fill="#C4C4C4" fill-opacity="0.19"/>
<rect x="31" y="407" width="128" height="7" fill="#C4C4C4" fill-opacity="0.19"/>
<rect x="336" y="404" width="128" height="7" fill="#C4C4C4" fill-opacity="0.19"/>
<path fill-rule="evenodd" clip-rule="evenodd" d="M49.1711 39.3809L44.5 24L39.8289 39.3809H24L36.8066 49.338L32.0536 65L44.5 55.3211L56.9464 65L52.1934 49.338L65 39.3809H49.1711Z" fill="#999999"/>
<defs>
<clipPath id="clip0_142_364">
<rect width="24" height="25" fill="white" transform="translate(221 284)"/>
</clipPath>
</defs>
</svg>
