<svg width="101" height="33" viewBox="0 0 101 33" fill="none" xmlns="http://www.w3.org/2000/svg">
<rect width="101" height="33" rx="3" fill="#F9FAFB"/>
<path fill-rule="evenodd" clip-rule="evenodd" d="M27.7375 14.2867C27.1142 11.1242 24.3367 8.75 21 8.75C18.3508 8.75 16.05 10.2533 14.9042 12.4533C12.145 12.7467 10 15.0842 10 17.9167C10 20.9508 12.4658 23.4167 15.5 23.4167L27.4167 23.4167C29.9467 23.4167 32 21.3633 32 18.8333C32 16.4133 30.1208 14.4517 27.7375 14.2867ZM27.4167 21.5833L15.5 21.5833C13.4742 21.5833 11.8333 19.9425 11.8333 17.9167C11.8333 16.0375 13.2358 14.47 15.0967 14.2775L16.0775 14.1767L16.5358 13.3058C17.4067 11.6283 19.1117 10.5833 21 10.5833C23.4017 10.5833 25.4733 12.2883 25.9408 14.6442L26.2158 16.0192L27.6183 16.12C29.0483 16.2117 30.1667 17.4125 30.1667 18.8333C30.1667 20.3458 28.9292 21.5833 27.4167 21.5833ZM19.6708 17H17.3333L21 13.3333L24.6667 17H22.3292V19.75H19.6708V17Z" fill="#9DA3AE"/>
<path d="M47.1186 12.5455V18.6484C47.1186 19.9318 46.2322 20.8551 44.7919 20.8551C43.3562 20.8551 42.4652 19.9318 42.4652 18.6484V12.5455H41.0387V18.7638C41.0387 20.7489 42.5252 22.157 44.7919 22.157C47.0586 22.157 48.5497 20.7489 48.5497 18.7638V12.5455H47.1186ZM50.3029 24.6591H51.6832V20.8967H51.7663C52.0156 21.3491 52.5234 22.1385 53.816 22.1385C55.5333 22.1385 56.7798 20.7628 56.7798 18.4684C56.7798 16.1694 55.5149 14.8168 53.8022 14.8168C52.4865 14.8168 52.011 15.62 51.7663 16.0586H51.6509V14.9091H50.3029V24.6591ZM51.6555 18.4545C51.6555 16.9727 52.3018 15.9893 53.5067 15.9893C54.7578 15.9893 55.3856 17.0465 55.3856 18.4545C55.3856 19.8764 54.7393 20.9613 53.5067 20.9613C52.3203 20.9613 51.6555 19.9457 51.6555 18.4545ZM59.4966 12.5455H58.1163V22H59.4966V12.5455ZM64.1305 22.1431C66.1294 22.1431 67.4359 20.6797 67.4359 18.4869C67.4359 16.2802 66.1294 14.8168 64.1305 14.8168C62.1315 14.8168 60.8251 16.2802 60.8251 18.4869C60.8251 20.6797 62.1315 22.1431 64.1305 22.1431ZM64.1351 20.9844C62.8286 20.9844 62.2193 19.8441 62.2193 18.4822C62.2193 17.125 62.8286 15.9709 64.1351 15.9709C65.4323 15.9709 66.0417 17.125 66.0417 18.4822C66.0417 19.8441 65.4323 20.9844 64.1351 20.9844ZM70.8302 22.157C72.0028 22.157 72.6629 21.5614 72.9261 21.0305H72.9815V22H74.3295V17.2912C74.3295 15.2276 72.7045 14.8168 71.5781 14.8168C70.2947 14.8168 69.1129 15.3338 68.6512 16.6264L69.9484 16.9219C70.1516 16.4187 70.6686 15.9339 71.5965 15.9339C72.4875 15.9339 72.9445 16.4002 72.9445 17.2035V17.2358C72.9445 17.739 72.4275 17.7298 71.1533 17.8775C69.8099 18.0344 68.4342 18.3853 68.4342 19.9964C68.4342 21.3906 69.4822 22.157 70.8302 22.157ZM71.1303 21.049C70.3501 21.049 69.7869 20.6982 69.7869 20.0149C69.7869 19.2763 70.4424 19.0131 71.2411 18.907C71.6889 18.8469 72.7506 18.7269 72.9492 18.5284V19.4425C72.9492 20.2827 72.2798 21.049 71.1303 21.049ZM78.6125 22.1385C79.9051 22.1385 80.4129 21.3491 80.6622 20.8967H80.7776V22H82.1256V12.5455H80.7453V16.0586H80.6622C80.4129 15.62 79.942 14.8168 78.6217 14.8168C76.909 14.8168 75.6487 16.1694 75.6487 18.4684C75.6487 20.7628 76.8905 22.1385 78.6125 22.1385ZM78.9172 20.9613C77.6846 20.9613 77.0429 19.8764 77.0429 18.4545C77.0429 17.0465 77.6707 15.9893 78.9172 15.9893C80.1221 15.9893 80.7684 16.9727 80.7684 18.4545C80.7684 19.9457 80.1082 20.9613 78.9172 20.9613Z" fill="#9DA3AE"/>
</svg>
