<svg width="139" height="26" viewBox="0 0 139 26" fill="none" xmlns="http://www.w3.org/2000/svg">
<path d="M19.874 5.67068L16.3804 18.6922H12.0077L9.97168 10.2446L7.86629 18.6922H3.5167L0 5.67068H3.95628L5.78404 14.9818L7.95884 5.67068H12.1465L14.3444 14.9351L16.149 5.67068H19.874Z" fill="white"/>
<path d="M20.5961 12.1581C20.5961 10.8202 20.8428 9.6456 21.3364 8.63437C21.8454 7.62314 22.5318 6.84527 23.3955 6.30076C24.2593 5.75625 25.2233 5.48399 26.2875 5.48399C27.1976 5.48399 27.9919 5.67068 28.6706 6.04406C29.3647 6.41744 29.8968 6.9075 30.267 7.51423V5.67068H34.2233V18.6922H30.267V16.8487C29.8814 17.4554 29.3415 17.9455 28.6474 18.3189C27.9688 18.6922 27.1744 18.8789 26.2644 18.8789C25.2156 18.8789 24.2593 18.6067 23.3955 18.0622C22.5318 17.5021 21.8454 16.7164 21.3364 15.7052C20.8428 14.6784 20.5961 13.4961 20.5961 12.1581ZM30.267 12.1815C30.267 11.1858 29.9893 10.4001 29.4341 9.82451C28.8942 9.24889 28.231 8.96107 27.4444 8.96107C26.6577 8.96107 25.9868 9.24889 25.4315 9.82451C24.8917 10.3846 24.6217 11.1624 24.6217 12.1581C24.6217 13.1538 24.8917 13.9472 25.4315 14.5384C25.9868 15.114 26.6577 15.4018 27.4444 15.4018C28.231 15.4018 28.8942 15.114 29.4341 14.5384C29.9893 13.9628 30.267 13.1771 30.267 12.1815Z" fill="white"/>
<path d="M41.9903 5.48399C42.9003 5.48399 43.6947 5.67068 44.3733 6.04406C45.0674 6.41744 45.5996 6.9075 45.9697 7.51423V5.67068H49.926V18.6689C49.926 19.8668 49.6869 20.9481 49.2088 21.9126C48.7461 22.8927 48.0288 23.6706 47.0571 24.2462C46.1008 24.8219 44.9055 25.1097 43.471 25.1097C41.5584 25.1097 40.0083 24.6507 38.8207 23.7328C37.633 22.8305 36.9543 21.6015 36.7847 20.0457H40.6947C40.8181 20.5436 41.1111 20.9325 41.5739 21.2125C42.0366 21.5081 42.6073 21.6559 43.2859 21.6559C44.1034 21.6559 44.7512 21.4148 45.2294 20.9325C45.7229 20.4658 45.9697 19.7113 45.9697 18.6689V16.8253C45.5841 17.4321 45.052 17.9299 44.3733 18.3189C43.6947 18.6922 42.9003 18.8789 41.9903 18.8789C40.926 18.8789 39.962 18.6067 39.0983 18.0622C38.2345 17.5021 37.5482 16.7164 37.0392 15.7052C36.5456 14.6784 36.2988 13.4961 36.2988 12.1581C36.2988 10.8202 36.5456 9.6456 37.0392 8.63437C37.5482 7.62314 38.2345 6.84527 39.0983 6.30076C39.962 5.75625 40.926 5.48399 41.9903 5.48399ZM45.9697 12.1815C45.9697 11.1858 45.6921 10.4001 45.1368 9.82451C44.597 9.24889 43.9337 8.96107 43.1471 8.96107C42.3605 8.96107 41.6895 9.24889 41.1343 9.82451C40.5944 10.3846 40.3245 11.1624 40.3245 12.1581C40.3245 13.1538 40.5944 13.9472 41.1343 14.5384C41.6895 15.114 42.3605 15.4018 43.1471 15.4018C43.9337 15.4018 44.597 15.114 45.1368 14.5384C45.6921 13.9628 45.9697 13.1771 45.9697 12.1815Z" fill="white"/>
<path d="M69.2611 5.53066C70.8653 5.53066 72.1377 6.02072 73.0786 7.00084C74.0349 7.98096 74.5131 9.34223 74.5131 11.0847V18.6922H70.5799V11.6214C70.5799 10.7813 70.3563 10.1357 69.909 9.68449C69.4771 9.21777 68.8755 8.98441 68.1043 8.98441C67.3331 8.98441 66.7239 9.21777 66.2766 9.68449C65.8447 10.1357 65.6288 10.7813 65.6288 11.6214V18.6922H61.6956V11.6214C61.6956 10.7813 61.472 10.1357 61.0247 9.68449C60.5928 9.21777 59.9913 8.98441 59.2201 8.98441C58.4488 8.98441 57.8396 9.21777 57.3923 9.68449C56.9604 10.1357 56.7445 10.7813 56.7445 11.6214V18.6922H52.7882V5.67068H56.7445V7.30421C57.1455 6.7597 57.6699 6.33187 58.3177 6.02072C58.9656 5.69402 59.6982 5.53066 60.5157 5.53066C61.4874 5.53066 62.3512 5.74069 63.1069 6.16074C63.8781 6.58079 64.4797 7.17975 64.9116 7.95762C65.3588 7.24198 65.9681 6.65858 66.7393 6.20741C67.5105 5.75625 68.3511 5.53066 69.2611 5.53066Z" fill="white"/>
<path d="M79.2697 4.31718C78.5756 4.31718 78.0049 4.11494 77.5576 3.71045C77.1257 3.29039 76.9098 2.777 76.9098 2.17026C76.9098 1.54796 77.1257 1.03457 77.5576 0.630076C78.0049 0.210025 78.5756 0 79.2697 0C79.9484 0 80.5036 0.210025 80.9355 0.630076C81.3828 1.03457 81.6065 1.54796 81.6065 2.17026C81.6065 2.777 81.3828 3.29039 80.9355 3.71045C80.5036 4.11494 79.9484 4.31718 79.2697 4.31718ZM81.2363 5.67068V18.6922H77.28V5.67068H81.2363Z" fill="white"/>
<rect x="86.0903" y="0.896759" width="52.9097" height="20.6258" rx="10.3129" fill="white" fill-opacity="0.08"/>
<path d="M97.3168 17.0093C96.9202 17.0093 96.5915 16.8966 96.3305 16.6712C96.0801 16.436 95.9548 16.1468 95.9548 15.8038C95.9548 15.4608 96.0801 15.1766 96.3305 14.9511C96.5915 14.7159 96.9202 14.5983 97.3168 14.5983C97.7029 14.5983 98.0213 14.7159 98.2717 14.9511C98.5222 15.1766 98.6474 15.4608 98.6474 15.8038C98.6474 16.1468 98.5222 16.436 98.2717 16.6712C98.0213 16.8966 97.7029 17.0093 97.3168 17.0093Z" fill="white" fill-opacity="0.69"/>
<path d="M102.604 9.95272C102.886 9.56069 103.272 9.24217 103.763 8.99714C104.264 8.75212 104.833 8.62961 105.469 8.62961C106.21 8.62961 106.878 8.80113 107.473 9.14416C108.078 9.48719 108.553 9.97723 108.898 10.6143C109.252 11.2415 109.43 11.9717 109.43 12.8048C109.43 13.6378 109.252 14.3778 108.898 15.0246C108.553 15.6617 108.078 16.1566 107.473 16.5095C106.878 16.8623 106.21 17.0387 105.469 17.0387C104.822 17.0387 104.253 16.9211 103.763 16.6859C103.283 16.4409 102.897 16.1272 102.604 15.745V16.9064H100.413V6.0275H102.604V9.95272ZM107.191 12.8048C107.191 12.3147 107.082 11.8933 106.863 11.5405C106.654 11.1778 106.372 10.9034 106.017 10.7172C105.673 10.531 105.297 10.4379 104.89 10.4379C104.493 10.4379 104.118 10.5359 103.763 10.7319C103.418 10.9181 103.137 11.1925 102.918 11.5552C102.709 11.9178 102.604 12.3441 102.604 12.8342C102.604 13.3242 102.709 13.7505 102.918 14.1132C103.137 14.4758 103.418 14.7551 103.763 14.9511C104.118 15.1374 104.493 15.2305 104.89 15.2305C105.297 15.2305 105.673 15.1325 106.017 14.9364C106.372 14.7404 106.654 14.4611 106.863 14.0985C107.082 13.7358 107.191 13.3046 107.191 12.8048Z" fill="white" fill-opacity="0.69"/>
<path d="M112.134 7.79165C111.748 7.79165 111.424 7.67894 111.163 7.45352C110.913 7.2183 110.788 6.92917 110.788 6.58615C110.788 6.24312 110.913 5.95889 111.163 5.73347C111.424 5.49826 111.748 5.38065 112.134 5.38065C112.52 5.38065 112.838 5.49826 113.089 5.73347C113.35 5.95889 113.48 6.24312 113.48 6.58615C113.48 6.92917 113.35 7.2183 113.089 7.45352C112.838 7.67894 112.52 7.79165 112.134 7.79165ZM113.214 8.76193V16.9064H111.023V8.76193H113.214Z" fill="white" fill-opacity="0.69"/>
<path d="M119.231 17.0387C118.396 17.0387 117.644 16.8672 116.976 16.5242C116.308 16.1713 115.781 15.6764 115.395 15.0393C115.019 14.4023 114.832 13.6672 114.832 12.8342C114.832 12.0011 115.025 11.266 115.411 10.629C115.807 9.99193 116.345 9.50189 117.023 9.15886C117.702 8.80603 118.458 8.62961 119.293 8.62961C120.128 8.62961 120.885 8.80603 121.563 9.15886C122.242 9.50189 122.774 9.99193 123.16 10.629C123.557 11.266 123.755 12.0011 123.755 12.8342C123.755 13.6672 123.551 14.4023 123.144 15.0393C122.748 15.6764 122.205 16.1713 121.516 16.5242C120.838 16.8672 120.076 17.0387 119.231 17.0387ZM119.231 15.2452C119.627 15.2452 119.998 15.157 120.342 14.9805C120.697 14.7943 120.979 14.5199 121.187 14.1573C121.396 13.7946 121.501 13.3536 121.501 12.8342C121.501 12.0599 121.281 11.4669 120.843 11.0553C120.415 10.6339 119.888 10.4232 119.262 10.4232C118.636 10.4232 118.109 10.6339 117.681 11.0553C117.263 11.4669 117.055 12.0599 117.055 12.8342C117.055 13.6084 117.258 14.2063 117.665 14.6277C118.083 15.0393 118.604 15.2452 119.231 15.2452Z" fill="white" fill-opacity="0.69"/>
</svg>
