<svg width="70" height="70" viewBox="0 0 70 70" fill="none" xmlns="http://www.w3.org/2000/svg">
<circle cx="35" cy="35" r="35" fill="#C4CDFF"/>
<path d="M24.1135 38.1509V26.2664H20.9891L13 38.747L13.0762 40.6115H21.078V44.7336H24.1135V40.6115H26.4379V38.1509H24.1135ZM16.0991 38.1509L20.7223 30.9846L21.078 30.3251V38.1509H16.0991Z" fill="black" fill-opacity="0.44"/>
<path d="M41.2744 37.6943V33.3184C41.2744 32.1346 41.1347 31.0903 40.8553 30.1856C40.5758 29.2724 40.1821 28.5029 39.674 27.8772C39.1491 27.2599 38.514 26.7948 37.7689 26.482C37.0322 26.1607 36.1939 26 35.254 26C34.3226 26 33.4843 26.1607 32.7392 26.482C32.0025 26.7948 31.3759 27.2599 30.8594 27.8772C30.3429 28.5029 29.9449 29.2724 29.6655 30.1856C29.3945 31.0903 29.2591 32.1346 29.2591 33.3184V37.6943C29.2591 38.8781 29.3945 39.9266 29.6655 40.8398C29.9449 41.7445 30.3471 42.5056 30.8721 43.1228C31.3886 43.7401 32.0195 44.2094 32.7646 44.5307C33.5097 44.8436 34.348 45 35.2794 45C36.2193 45 37.0576 44.8436 37.7943 44.5307C38.5394 44.2094 39.166 43.7401 39.674 43.1228C40.1906 42.5056 40.5843 41.7445 40.8553 40.8398C41.1347 39.9266 41.2744 38.8781 41.2744 37.6943ZM32.3073 36.6162C32.3073 36.3709 32.3073 36.1638 32.3073 35.9947C32.3073 35.8255 32.3073 35.5803 32.3073 35.259V32.773C32.3073 32.012 32.3751 31.3525 32.5106 30.7944C32.646 30.2279 32.8535 29.767 33.1329 29.4119C33.37 29.099 33.6664 28.8623 34.022 28.7016C34.3776 28.5409 34.7883 28.4606 35.254 28.4606C35.6943 28.4606 36.0838 28.5283 36.4225 28.6636C36.7612 28.7988 37.0491 29.0018 37.2862 29.2724C37.5572 29.5768 37.7646 29.97 37.9086 30.4519C38.061 30.9339 38.1541 31.5047 38.188 32.1642L32.3073 36.6162ZM38.2134 38.2016C38.2134 38.9795 38.1457 39.656 38.0102 40.231C37.8747 40.806 37.663 41.271 37.3751 41.6262C37.1296 41.9306 36.8332 42.1631 36.486 42.3238C36.1389 42.476 35.7367 42.5521 35.2794 42.5521C34.8137 42.5521 34.403 42.4717 34.0474 42.3111C33.7002 42.1504 33.4081 41.9094 33.171 41.5881C32.9339 41.2922 32.7434 40.9201 32.5995 40.472C32.464 40.0238 32.3751 39.508 32.3327 38.9246L38.2134 34.498C38.2134 34.7432 38.2134 34.98 38.2134 35.2083C38.2134 35.4281 38.2134 35.648 38.2134 35.8678V38.2016Z" fill="black" fill-opacity="0.44"/>
<path d="M54.6757 38.1509V26.2664H51.5512L43.5621 38.747L43.6383 40.6115H51.6401V44.7336H54.6757V40.6115H57V38.1509H54.6757ZM46.6612 38.1509L51.2845 30.9846L51.6401 30.3251V38.1509H46.6612Z" fill="black" fill-opacity="0.44"/>
</svg>
