<svg width="56" height="56" viewBox="0 0 56 56" fill="none" xmlns="http://www.w3.org/2000/svg">
<circle cx="28" cy="28" r="28" fill="#5337FF" fill-opacity="0.17"/>
<path d="M21 35H36C36.5523 35 37 35.4477 37 36C37 36.5523 36.5523 37 36 37H20C19.4477 37 19 36.5523 19 36V20C19 19.4477 19.4477 19 20 19C20.5523 19 21 19.4477 21 20V35Z" fill="#5337FF"/>
<path opacity="0.3" d="M24.7295 30.684C24.3518 31.0869 23.719 31.1073 23.3161 30.7295C22.9131 30.3518 22.8927 29.719 23.2705 29.3161L27.0205 25.3161C27.3858 24.9264 27.9928 24.8926 28.3991 25.2393L31.3589 27.765L35.2151 22.8804C35.5573 22.4469 36.1862 22.3729 36.6196 22.7151C37.0531 23.0573 37.1271 23.6862 36.7849 24.1197L32.2849 29.8197C31.9334 30.2649 31.2824 30.3289 30.8509 29.9607L27.8268 27.3802L24.7295 30.684Z" fill="#5337FF"/>
</svg>
