<svg width="56" height="56" viewBox="0 0 56 56" fill="none" xmlns="http://www.w3.org/2000/svg">
<circle cx="28" cy="28" r="28" fill="#5337FF" fill-opacity="0.17"/>
<path fill-rule="evenodd" clip-rule="evenodd" d="M22.6854 23.2718C23.0875 23.6503 23.1067 24.2832 22.7282 24.6854L19.3732 28.25L22.7282 31.8146C23.1067 32.2168 23.0875 32.8497 22.6854 33.2282C22.2832 33.6067 21.6503 33.5875 21.2718 33.1854L17.2718 28.9354C16.9094 28.5503 16.9094 27.9497 17.2718 27.5646L21.2718 23.3146C21.6503 22.9125 22.2832 22.8933 22.6854 23.2718ZM33.3146 23.2718C32.9125 23.6503 32.8933 24.2832 33.2718 24.6854L36.6268 28.25L33.2718 31.8146C32.8933 32.2168 32.9125 32.8497 33.3146 33.2282C33.7168 33.6067 34.3497 33.5875 34.7282 33.1854L38.7282 28.9354C39.0906 28.5503 39.0906 27.9497 38.7282 27.5646L34.7282 23.3146C34.3497 22.9125 33.7168 22.8933 33.3146 23.2718Z" fill="#5337FF"/>
<rect opacity="0.3" x="29.1047" y="20.0138" width="2" height="16" rx="1" transform="rotate(15 29.1047 20.0138)" fill="#5337FF"/>
</svg>
