<svg width="56" height="56" viewBox="0 0 56 56" fill="none" xmlns="http://www.w3.org/2000/svg">
<circle cx="28" cy="28" r="28" fill="#5337FF" fill-opacity="0.17"/>
<path opacity="0.3" fill-rule="evenodd" clip-rule="evenodd" d="M22.136 27.0858L18.6004 30.6213C18.2099 31.0118 18.2099 31.645 18.6004 32.0355L20.05 33.4851C21.0207 32.842 22.3414 32.9481 23.1966 33.8033C24.0518 34.6585 24.1579 35.9792 23.5148 36.9499L24.9644 38.3995C25.3549 38.79 25.9881 38.79 26.3786 38.3995L29.9141 34.864L28.4999 33.4498C28.1094 33.0592 28.1094 32.4261 28.4999 32.0355C28.8904 31.645 29.5236 31.645 29.9141 32.0355L31.3283 33.4498L38.3994 26.3787C38.7899 25.9882 38.7899 25.355 38.3994 24.9645L36.9498 23.5149C35.9791 24.158 34.6584 24.0519 33.8032 23.1967C32.948 22.3415 32.8419 21.0208 33.485 20.0501L32.0354 18.6005C31.6449 18.21 31.0118 18.21 30.6212 18.6005L23.5502 25.6716L24.9644 27.0858C25.3549 27.4763 25.3549 28.1095 24.9644 28.5C24.5739 28.8905 23.9407 28.8905 23.5502 28.5L22.136 27.0858ZM25.6715 30.6213C25.281 30.2308 25.281 29.5976 25.6715 29.2071C26.062 28.8166 26.6952 28.8166 27.0857 29.2071L27.7928 29.9142C28.1833 30.3047 28.1833 30.9379 27.7928 31.3284C27.4023 31.719 26.7691 31.719 26.3786 31.3284L25.6715 30.6213Z" fill="#5337FF"/>
</svg>
