<svg width="56" height="56" viewBox="0 0 56 56" fill="none" xmlns="http://www.w3.org/2000/svg">
<circle cx="28" cy="28" r="28" fill="#5337FF" fill-opacity="0.17"/>
<path fill-rule="evenodd" clip-rule="evenodd" d="M32.5429 33.4571L27 27.9142V20C27 19.4477 27.4477 19 28 19C28.5523 19 29 19.4477 29 20V27.0858L33.9571 32.0429L36.1464 29.8536C36.4614 29.5386 37 29.7617 37 30.2071V35.5C37 35.7761 36.7761 36 36.5 36H31.2071C30.7617 36 30.5386 35.4614 30.8536 35.1464L32.5429 33.4571Z" fill="#5337FF"/>
<path opacity="0.3" fill-rule="evenodd" clip-rule="evenodd" d="M24.8539 29.1632L26.1458 30.69L23.2447 33.1448L25.2463 35.1465C25.5613 35.4614 25.3382 36 24.8928 36H19.5288C19.2527 36 19.0288 35.7762 19.0288 35.5V30.1361C19.0288 29.6906 19.5674 29.4675 19.8824 29.7825L21.8255 31.7257L24.8539 29.1632Z" fill="#5337FF"/>
</svg>
